<svg xmlns="http://www.w3.org/2000/svg" viewBox="0 0 2702.18 2702.18">

    <path fill="#923277"
        d="M2702.18 1351.1c0 746.18-604.91 1351.08-1351.09 1351.08S0 2097.28 0 1351.1 604.92 0 1351.09 0s1351.09 604.92 1351.09 1351.1" />
    
    <path fill="white"
        d="M1010.34 2073.89a28 28 0 01-24.33-14.1c-231.51-402.29-121.84-649.32-25.07-867.29 77.2-173.94 143.89-324.18 25.12-528.71a28.05 28.05 0 1148.5-28.2c133.18 229.32 57.65 399.51-22.34 579.68-95.8 215.78-194.87 438.93 22.4 816.55a28.07 28.07 0 01-24.28 42.07zM1746.31 2073.89a28.13 28.13 0 01-24.28-42.13c218.46-378.07 119.22-601.39 23.28-817.32-79.94-179.88-155.46-349.81-23.28-578.76a28.06 28.06 0 0148.61 28c-117.91 204.24-51.25 354.25 25.92 528 96.94 218.12 206.81 465.32-25.92 868.18a28.12 28.12 0 01-24.33 14.03z" />
    <path fill="white"
        d="M1376.56 1447.43A1415.15 1415.15 0 01918.72 1371a28.06 28.06 0 0118.14-53.1c261.81 89.43 540.84 97.22 806.83 22.65a28.05 28.05 0 0115.18 54 1415.14 1415.14 0 01-382.31 52.88zM1379.15 1785.08a191.86 191.86 0 01-80.25-17.46 28.06 28.06 0 0123.54-50.94 136.2 136.2 0 00113.42 0 28.06 28.06 0 0123.54 50.94 191.9 191.9 0 01-80.25 17.46z" />
    <path fill="white"
        d="M1426.17 2073.89a28.09 28.09 0 01-27.72-24c-14-94.38-6.63-200.24 22-314.57a28 28 0 1154.41 13.65c-26.78 107.11-33.8 205.63-20.89 292.73a28 28 0 01-23.63 31.84 25.4 25.4 0 01-4.17.35zM1332.13 2073.89a25.52 25.52 0 01-4.15-.34 28 28 0 01-23.62-31.84c12.31-83 5.23-181.64-21-293.13a28.07 28.07 0 0154.64-12.85c27.85 118.48 35.22 224.17 21.86 314.17a28.1 28.1 0 01-27.73 23.99z" />
    <path fill="white"
        d="M1310.7 1770.24a28.11 28.11 0 01-23.48-12.68c-76.73-116.66-182.9-198.93-324.61-251.46a28.07 28.07 0 0119.5-52.65c151.2 56.06 269.63 148 352 273.3a28.12 28.12 0 01-23.42 43.49zM1447.6 1770.24a28.13 28.13 0 01-23.54-43.32c94.21-145.55 239.55-246.12 432-298.94a28.06 28.06 0 1114.84 54.13c-178.78 49.06-313.29 141.68-399.74 275.28a28.06 28.06 0 01-23.56 12.85zM1381.62 1318.06h-4.95a28.06 28.06 0 010-56.12c15.5 0 30.53 12.57 30.53 28.06s-10.09 28.06-25.58 28.06zM1952.6 1078.76a28 28 0 01-15.81-4.89l-135.34-92.41a28.08 28.08 0 010-46.34l135.34-92.41a28.05 28.05 0 0143.89 23.17v49.51c0 7.62 7.22 14.84 14.84 14.84H2078a28.06 28.06 0 010 56.12h-82.52c-37.27 0-68.93-30.53-70.87-67.4L1867 958.29l101.43 69.25a28.06 28.06 0 01-15.86 51.22zM804 1078.76a28.09 28.09 0 01-28.06-28v-49.49c0-7.23-5.2-14.87-14.84-14.87h-80.85a28.06 28.06 0 110-56.12h80.87A71 71 0 01832 998l58.84-39.69-102.5-69.16a28.05 28.05 0 0131.38-46.51L956.7 935a28 28 0 010 46.5l-137 92.42a28.09 28.09 0 01-15.7 4.84z" />

</svg>