<svg xmlns="http://www.w3.org/2000/svg" viewBox="0 0 927.83 927.83" fill="#923277" >
    <path
        d="M927.83 463.92c0 256.21-207.71 463.91-463.92 463.91S0 720.13 0 463.92 207.71 0 463.91 0s463.92 207.71 463.92 463.92" />

    <path stroke=' #fff' stroke-miterlimit='10' fill='#fff'
        d="M271.5 731.4a9.6 9.6 0 01-8.77-5.66c-.84-1.85-20.63-46-32.81-106.19-16.29-80.46-10.67-150.95 16.24-203.85 30.28-59.53 86.88-98.28 168.23-115.18 104.65-21.74 151.87-52.1 173.06-73.73 21.9-22.36 20.54-39.24 20.47-39.95v.18l19.08-2.59c.34 2.51 2.59 25.36-23.54 53.44-32.93 35.39-95.24 62.81-185.17 81.49-75.32 15.64-127.46 51-155 105-31.4 61.79-25.29 137.94-14.6 190.94 11.72 58.2 31.37 102.08 31.57 102.51a9.63 9.63 0 01-8.76 13.59m246.11-53.76a38.53 38.53 0 01-13.17-2.31L385 631.92a9.62 9.62 0 016.57-18.09L511 657.24a19.8 19.8 0 0023.91-8.88l18.34-51.68a9.61 9.61 0 015.79-5.83l10.93-4c-9.1-4.2-25.64-11.8-36.82-16.81a9.62 9.62 0 015.34-18.3c17.72 2.62 38-1.29 46.24-3.2-3.07-3.29-8.45-8.31-12.91-12.12a9.62 9.62 0 014.36-16.75l44.71-8.92c-4.33-9.22-10.77-23.06-17.14-37.2-23.19-51.45-23.06-56.77-23-59.95.09-3.6 1.48-7.4 3.8-13.69 7.3-19.81 22.48-61.05 1.18-119.61a9.62 9.62 0 1118.08-6.57c23.71 65.18 6.25 112.58-1.2 132.83-1 2.67-2.18 5.93-2.55 7.4 1.86 9.2 23.3 57.36 43.45 99.69a9.62 9.62 0 01-6.8 13.57l-38.45 7.66a42.72 42.72 0 015.17 6.45c2.83 4.69 2.86 11.28.07 16.78a14.61 14.61 0 01-10.39 8.19c-1.85.49-7.35 1.89-14.89 3.16l6.42 3a9.6 9.6 0 012.18 1.39 17.28 17.28 0 01-2.5 28.12 8.78 8.78 0 01-1.55.73l-12.92 4.68-17.05 48.12a9.11 9.11 0 01-.54 1.24 39.14 39.14 0 01-34.65 20.9" />
    <path
        d="M637.14 463.37a9.62 9.62 0 01-7.09-16.12c26.74-29.19 44.57-61.74 53-96.73 6.74-28 7.53-57.8 2.33-88.46-9-52.76-32.85-90.35-33.09-90.72a9.62 9.62 0 0116.17-10.44c1.06 1.64 26 40.75 35.76 97.22 9 52.46 6 130.12-60 202.13a9.6 9.6 0 01-7.1 3.12"
        fill="#fff" />
    <path stroke=' #fff' stroke-miterlimit='10' fill='#fff'
        d="M393.84 771.32a9.63 9.63 0 01-8.6-5.29c-14.93-29.65-18.1-57.25-9.44-82 13.08-37.43 48.42-54.08 49.92-54.77a9.62 9.62 0 018.08 17.46c-.3.14-29.62 14.16-39.89 43.83-6.8 19.65-3.94 42.15 8.51 66.87a9.62 9.62 0 01-8.58 14M716.45 602.2l-2.45-8.92a5.39 5.39 0 00-10.4 0l-2.45 8.92a5.42 5.42 0 01-3.78 3.78l-8.92 2.45a5.39 5.39 0 000 10.4l8.92 2.45a5.42 5.42 0 013.78 3.77l2.45 8.95a5.39 5.39 0 0010.4 0l2.45-8.93a5.43 5.43 0 013.77-3.77l8.93-2.45a5.39 5.39 0 000-10.4l-8.93-2.45a5.42 5.42 0 01-3.77-3.78M256.32 208.81l-2.45-8.93a5.4 5.4 0 00-10.41 0l-2.46 8.93a5.37 5.37 0 01-3.77 3.77l-8.92 2.42a5.4 5.4 0 000 10.41l8.93 2.45a5.36 5.36 0 013.77 3.77l2.45 8.92a5.4 5.4 0 0010.41 0l2.45-8.92a5.36 5.36 0 013.77-3.77l8.92-2.45A5.4 5.4 0 00269 215l-8.92-2.45a5.37 5.37 0 01-3.77-3.77m352.07 483.35l-2.45-8.92a5.39 5.39 0 00-10.4 0l-2.45 8.92a5.4 5.4 0 01-3.77 3.78l-8.93 2.45a5.39 5.39 0 000 10.4l8.93 2.45a5.39 5.39 0 013.77 3.77l2.45 8.93a5.39 5.39 0 0010.4 0l2.45-8.93a5.4 5.4 0 013.78-3.77l8.92-2.45a5.39 5.39 0 000-10.4l-8.92-2.45a5.42 5.42 0 01-3.78-3.78m48.53 35.74a10.86 10.86 0 11-10.85 10.85 10.85 10.85 0 0110.85-10.85M327.94 258a10.86 10.86 0 11-10.85 10.86A10.85 10.85 0 01327.94 258m21.13 211.79a7.14 7.14 0 01-.8 0 9.61 9.61 0 01-8.8-10.38c3.13-37.85 23.85-70.22 59.94-93.6a9.62 9.62 0 0110.47 16.15c-31.34 20.3-48.58 46.89-51.23 79a9.64 9.64 0 01-9.58 8.83m93.04-104.73a9.62 9.62 0 01-3.23-18.69c6.26-2.23 10.24-3.24 10.4-3.28a9.62 9.62 0 014.72 18.65s-3.36.86-8.69 2.76a9.54 9.54 0 01-3.22.56m94.99 205.86a9.66 9.66 0 01-3.66-.72c-5.93-2.44-15.21-7.41-15.6-7.62a9.62 9.62 0 019.08-17c.09 0 8.82 4.71 13.84 6.78a9.62 9.62 0 01-3.66 18.52" />

</svg>