<svg xmlns="http://www.w3.org/2000/svg" viewBox="0 0 2702.18 2702.18" fill="#923277">
    <path
        d="M2702.18 1351.1c0 746.18-604.91 1351.08-1351.09 1351.08S0 2097.28 0 1351.1 604.92 0 1351.09 0s1351.09 604.92 1351.09 1351.1" />
    <path fill='#fff'
        d="M1459.05 822.54h-412.92c-32.32 0-59.62-27.3-59.62-59.61v-59.62c0-33.44 26.15-59.63 59.62-59.63h412.92c33.47 0 59.62 26.19 59.62 59.63v59.62c0 32.31-27.3 59.61-59.62 59.61zm-412.92-129.42c-4.91 0-10.22 3.18-10.22 10.19v59.62c0 5.23 5 10.17 10.22 10.17h412.92c5.26 0 10.22-4.94 10.22-10.17v-59.62c0-7-5.31-10.19-10.22-10.19zM1430 1798.2H913.78a113.49 113.49 0 01-113.37-113.41v-863.7a113.51 113.51 0 01113.37-113.42h11.67a24.72 24.72 0 010 49.44h-11.67a64.06 64.06 0 00-64 64v863.7a64.1 64.1 0 0064 64H1430a24.7 24.7 0 110 49.39zm250.07-556.87a24.68 24.68 0 01-24.69-24.72V821.09a64.06 64.06 0 00-64-64h-11.62a24.72 24.72 0 010-49.44h11.62a113.51 113.51 0 01113.37 113.42v395.52a24.69 24.69 0 01-24.68 24.74z" />
    <path fill='#fff'
        d="M1002.49 1042.1a24.8 24.8 0 01-19.94-10.1l-32-43.61a24.72 24.72 0 1139.87-29.25l11.77 16 41.23-57.91a24.71 24.71 0 0140.28 28.65l-61.07 85.79a24.71 24.71 0 01-19.94 10.39zM1534.7 998.49h-356.27a24.72 24.72 0 010-49.44h356.27a24.72 24.72 0 010 49.44zM1002.49 1250a24.65 24.65 0 01-20.14-10.41l-32-45.09a24.7 24.7 0 1140.27-28.6l11.72 16.48 41-58.51a24.71 24.71 0 1140.48 28.35l-61.07 87.24c-4.63 6.68-11.09 11.29-20.26 10.54zM1534.7 1206.41h-356.27a24.72 24.72 0 010-49.44h356.27a24.72 24.72 0 010 49.44zM1002.49 1456.51a24.7 24.7 0 01-19.94-10.07l-32-43.63a24.73 24.73 0 1139.87-29.26l11.62 15.83 41.28-59a24.71 24.71 0 1140.48 28.35l-61.07 87.27c-4.66 6.55-13.32 10.11-20.24 10.51zM1534.7 1412.88h-356.27a24.7 24.7 0 010-49.4h356.27a24.7 24.7 0 010 49.4zM1002.49 1664.45a24.67 24.67 0 01-20.14-10.37l-32-45.08a24.71 24.71 0 1140.27-28.66l11.72 16.53 41-58.56a24.71 24.71 0 0140.48 28.36l-61.07 87.26a24.66 24.66 0 01-20.14 10.52zM1411.06 1620.82h-232.63a24.7 24.7 0 110-49.39h232.63a24.7 24.7 0 110 49.39zM1735.43 1923.54c-36.72 0-74.24-11.57-108.31-33.86-61.82-40.48-107-110.66-123.88-192.57-15.93-73.19-6.26-140 28-193 29.66-45.84 76.54-77.55 132-89.27a151 151 0 0137.12-4.86 24.7 24.7 0 110 49.39 104.56 104.56 0 00-26 3.66c-43.43 9.17-79.2 33.21-101.69 68-27 41.68-34.27 95.53-21.19 155.79 14.13 68.38 52.45 128.65 102.59 161.46 34.52 22.59 71.24 30.66 106.6 23.14 2.81-.55 5.31-1.3 7.92-2a151.35 151.35 0 0116.38-4 26.42 26.42 0 018.87.15c4.45.9 8.86 2.16 13.27 3.51 2.86.85 5.76 1.75 8.62 2.3 35.47 7.57 72.38-.55 106.85-23.09 50.15-32.81 88.47-93.08 102.54-161.21 13.13-60.51 5.81-114.36-21.14-156-22.49-34.77-58.26-58.81-100.79-67.78-36.77-7.66-73.54-3.71-103.14 11a24.69 24.69 0 11-22-44.18c39.37-19.69 87.36-25.15 135.3-15.18 55.61 11.72 102.49 43.43 132.15 89.27 34.32 53 44 119.77 28 193.21-16.83 81.66-62 151.84-123.83 192.32-45.09 29.5-96.33 40.12-143.87 30.15-4.11-.85-8.47-2.1-12.82-3.4-1.46-.45-2.91-.85-4.36-1.31-2.16.56-4.26 1.21-6.32 1.76-3.95 1.15-7.81 2.25-11.62 3a170.35 170.35 0 01-35.25 3.6z" />
    <path fill='#fff'
        d="M1787.68 1476.9a24.75 24.75 0 01-24.15-19.39c-10-45.24-38.63-82.56-78.45-102.49a24.7 24.7 0 0122-44.21c53.25 26.58 91.43 76.17 104.7 136a24.78 24.78 0 01-24.14 30.11z" />
    <path fill='#fff'
        d="M1761.63 1410.07c-1.86 0-3.66 0-5.51-.1a24.72 24.72 0 01-22-15.93c-14.62-38.37-8.66-82.31 15.93-117.47a125.53 125.53 0 01105.7-51.22 24.73 24.73 0 0121.85 15.53c14.87 37.17 9.41 81.7-14.24 116.19a123.44 123.44 0 01-101.73 53zm74.24-134a75.29 75.29 0 00-45.74 29.33c-11.47 16.41-16.33 35.44-14.08 53.93a73.18 73.18 0 0046.64-30.39 79.24 79.24 0 0013.18-52.87z" />
</svg>