<svg xmlns="http://www.w3.org/2000/svg" viewBox="0 0 2702.18 2702.18" fill="#923277" >
    <path
        d="M2702.18 1351.1c0 746.18-604.91 1351.08-1351.09 1351.08S0 2097.28 0 1351.1 604.92 0 1351.09 0s1351.09 604.92 1351.09 1351.1" />
    
    <path fill='white'
        d="M951.78 1428.23c-96.26 0-174.54-78.3-174.54-174.53s78.28-174.52 174.54-174.52 174.54 78.29 174.54 174.52-78.32 174.53-174.54 174.53zm0-296.69a122.17 122.17 0 10122.15 122.16 122.3 122.3 0 00-122.15-122.16z" />
    <path fill='white'
        d="M1271.42 1759.08H632.15a26.17 26.17 0 01-26.15-26.19v-41.4c0-160.22 108.85-298.35 264.71-335.89a26 26 0 0119.43 2.93c39.06 23 84.29 23 123.35 0a26.07 26.07 0 0119.42-2.93c155.82 37.54 264.71 175.67 264.71 335.89v41.4a26.17 26.17 0 01-26.2 26.19zm-613.14-52.34h587v-15.25a292.25 292.25 0 00-215-282.5 170.27 170.27 0 01-157 0 292.25 292.25 0 00-215 282.5z" />
    <path fill='white'
        d="M786.31 1759.08a26.21 26.21 0 01-26.18-26.19v-111.11a26.18 26.18 0 0152.36 0v111.11a26.17 26.17 0 01-26.18 26.19zm330.94 0a26.17 26.17 0 01-26.17-26.19v-111.11a26.16 26.16 0 1152.31 0v111.11a26.17 26.17 0 01-26.14 26.19zM1789 1163.29c-96.17 0-174.5-78.26-174.5-174.5s78.33-174.5 174.5-174.5 174.54 78.27 174.54 174.5-78.33 174.5-174.54 174.5zm0-296.69c-67.35 0-122.14 54.82-122.14 122.19S1721.6 1111 1789 1111a122.2 122.2 0 000-244.39z" />
    <path fill='white'
        d="M2108.59 1494.19h-639.23a26.14 26.14 0 01-26.18-26.17v-41.44c0-160.25 108.85-298.35 264.71-335.86a26.15 26.15 0 0119.43 2.88c39.06 23.08 84.25 23.08 123.35 0a26 26 0 0119.38-2.88c155.91 37.51 264.71 175.61 264.71 335.86V1468a26.14 26.14 0 01-26.17 26.19zm-613.1-52.35h587v-15.26a292.29 292.29 0 00-215-282.52 170.07 170.07 0 01-156.94 0 292.3 292.3 0 00-215 282.52v15.26z" />
    <path fill='white'
        d="M1623.52 1494.19a26.13 26.13 0 01-26.13-26.17v-111.17a26.14 26.14 0 1152.27 0V1468a26.13 26.13 0 01-26.14 26.19zm330.94 0a26.17 26.17 0 01-26.21-26.17v-111.17a26.18 26.18 0 0152.35 0V1468a26.16 26.16 0 01-26.14 26.19zM815.89 1014.94a27.15 27.15 0 01-7.17-1 26.15 26.15 0 01-18.52-20.35l-18.55-98.84H737c-70.41 0-127.65-57.24-127.65-127.59v-88.7A127.78 127.78 0 01737 550.82h507.23a127.78 127.78 0 01127.67 127.64v97.19c0 70.35-57.24 127.59-127.65 127.59H929.5l-94.27 103.2a26 26 0 01-19.34 8.5zM737 603.18a75.36 75.36 0 00-75.3 75.28v88.73a75.36 75.36 0 0075.3 75.29h56.33a26.12 26.12 0 0125.73 21.33L832 932.43l66.68-73a26.23 26.23 0 0119.3-8.51h326.31a75.38 75.38 0 0075.3-75.28v-97.18a75.39 75.39 0 00-75.3-75.28z" />
    <path fill='white'
        d="M823.22 799a72.67 72.67 0 1172.69-72.66A72.74 72.74 0 01823.22 799zm0-93a20.33 20.33 0 1020.33 20.32A20.36 20.36 0 00823.22 706zm167.41 93a72.67 72.67 0 1172.65-72.66A72.75 72.75 0 01990.63 799zm0-93a20.33 20.33 0 1020.37 20.32A20.33 20.33 0 00990.63 706zm167.42 93a72.67 72.67 0 1172.65-72.66 72.72 72.72 0 01-72.65 72.66zm0-93a20.33 20.33 0 1020.34 20.32 20.34 20.34 0 00-20.34-20.32zm836.1 1331.51h-507.23a127.78 127.78 0 01-127.65-127.65v-97.18c0-70.35 57.24-127.59 127.65-127.59h314.75l94.23-103.2a26.17 26.17 0 0145.06 12.82l18.52 98.84h34.67a127.74 127.74 0 01127.61 127.61v88.7c0 70.39-57.24 127.65-127.61 127.65zm-507.23-300.12a75.38 75.38 0 00-75.3 75.29v97.18a75.36 75.36 0 0075.3 75.29h507.22a75.39 75.39 0 0075.31-75.29v-88.69a75.42 75.42 0 00-75.31-75.32h-56.33a26.19 26.19 0 01-25.76-21.33l-12.84-68.64-66.73 73a26.07 26.07 0 01-19.3 8.51h-326.26z" />
    <path fill='white'
        d="M1908 1934.69a72.67 72.67 0 1172.6-72.69 72.76 72.76 0 01-72.6 72.69zm0-93a20.33 20.33 0 1020.3 20.32 20.39 20.39 0 00-20.3-20.33zm-167.47 93a72.67 72.67 0 1172.65-72.69 72.76 72.76 0 01-72.65 72.69zm0-93a20.33 20.33 0 1020.3 20.32 20.36 20.36 0 00-20.3-20.33zm-167.41 93a72.67 72.67 0 1172.65-72.69 72.72 72.72 0 01-72.65 72.69zm0-93a20.33 20.33 0 1020.33 20.32 20.38 20.38 0 00-20.33-20.33z" />
</svg>